<?xml version="1.0" standalone="no"?>
<!DOCTYPE svg PUBLIC "-//W3C//DTD SVG 20010904//EN"
 "http://www.w3.org/TR/2001/REC-SVG-20010904/DTD/svg10.dtd">
<svg version="1.0" xmlns="http://www.w3.org/2000/svg"
 width="311.000000pt" height="311.000000pt" viewBox="0 0 311.000000 311.000000"
 preserveAspectRatio="xMidYMid meet">
<metadata>
Created by potrace 1.14, written by Peter Selinger 2001-2017
</metadata>
<g transform="translate(0.000000,311.000000) scale(0.100000,-0.100000)"
fill="#000000" stroke="none">
<path d="M1439 2907 c-13 -5 -41 -9 -62 -8 -21 0 -54 -6 -75 -14 -20 -9 -54
-18 -76 -21 -25 -3 -51 -15 -67 -30 -15 -14 -30 -26 -33 -25 -25 4 -41 -3 -67
-28 -16 -17 -38 -32 -49 -36 -42 -13 -173 -168 -186 -220 -3 -17 -13 -37 -21
-46 -8 -9 -15 -27 -17 -40 -1 -13 -8 -34 -15 -47 -25 -46 -36 -383 -17 -540
l8 -72 -28 11 c-38 14 -86 4 -111 -24 -34 -37 -46 -92 -40 -183 5 -69 12 -97
41 -157 51 -103 98 -150 177 -176 36 -12 36 -12 67 -130 53 -204 100 -300 206
-417 l56 -62 -37 -7 c-64 -12 -111 -46 -136 -97 -20 -42 -26 -48 -72 -59 -27
-6 -62 -18 -77 -26 -34 -17 -98 -72 -98 -84 0 -25 308 -144 451 -174 248 -52
500 -55 739 -9 158 31 500 159 500 187 0 15 -64 68 -100 83 -19 8 -56 20 -81
25 -39 9 -48 14 -52 38 -10 50 -104 121 -162 121 -14 0 -25 2 -25 5 0 3 20 26
45 53 103 107 164 231 213 432 14 58 26 106 27 108 1 1 12 4 23 7 41 7 89 36
124 73 163 170 154 502 -13 479 -36 -5 -39 -3 -34 16 13 58 15 95 15 262 -1
194 -2 209 -23 330 -18 100 -60 179 -131 248 -58 56 -63 60 -116 97 -19 14
-49 37 -67 52 -17 14 -55 31 -84 37 -30 7 -63 21 -75 32 -32 30 -179 47 -324
38 -8 -1 -34 1 -56 3 -23 2 -53 0 -65 -5z"/>
</g>
</svg>
